<?xml version="1.0" encoding="UTF-8"?>
<svg id="katman_1" data-name="katman 1" xmlns="http://www.w3.org/2000/svg" viewBox="0 0 43.72 40.08">
  <path d="m27.89,31.65c-.72-.32-1.18-.94-1.09-1.86.06-.58.56-1.25,1.21-1.42.35-.09.73-.04,1.1-.05.39,0,.75-.1,1.09-.3.82-.5,1.03-1.66.39-2.42-.36-.43-.81-.61-1.37-.61-3.47.01-6.94.01-10.4,0-.96,0-1.62-.46-1.86-1.36-.21-.76.17-1.6,1-1.97.15-.07.32-.13.48-.12.73.03,1.18-.36,1.44-.99.34-.83.06-1.68-.68-2.12-.21-.12-.47-.21-.72-.22-1.36-.02-2.72,0-4.08-.01-.46,0-.89-.12-1.28-.36-.6-.36-.84-1.25-.65-1.93.21-.78.93-1.24,1.77-1.2.57.03,1.12-.03,1.58-.43.56-.48.73-1.2.47-1.86-.28-.72-.83-1.05-1.6-1.04-.94,0-1.89.02-2.83,0-.73-.02-1.26-.36-1.62-1.01-.5-.92.05-1.98.83-2.31.21-.09.45-.13.68-.14,1.39-.01,2.78,0,4.17,0,.76,0,1.42-.44,1.7-1.13.3-.73-.14-1.77-.9-2.06-.23-.09-.49-.1-.75-.13-.52-.06-1.04-.15-1.42-.55-.84-.87-.56-2.28.56-2.79.22-.1.49-.13.74-.14,2.82,0,5.64,0,8.47-.01.71,0,1.41-.14,2.12-.18.41-.02.83.02,1.24.03.2,0,.4.02.59.04.85.09,1.72.12,2.56.28.93.17,1.86.4,2.76.68,1.34.41,2.68.85,3.99,1.35.81.31,1.65.59,2.35,1.15.69.56,1.17,1.25,1.34,2.13.05.29.11.58.11.88,0,1.51-.96,2.9-2.37,3.46-1.1.43-2.16.31-3.23-.16-.86-.38-1.75-.72-2.63-1.04-.72-.26-1.46-.51-2.21-.68-.75-.18-1.52-.3-2.29-.39-.71-.08-1.42-.12-2.13-.11-1.18,0-2.32.25-3.36.84-.93.53-1.57,1.3-1.83,2.38-.15.63-.16,1.24.15,1.8.3.54.78.91,1.34,1.14.85.36,1.72.69,2.6.97.97.31,1.95.56,2.93.81.75.19,1.51.32,2.26.52.76.2,1.5.43,2.25.66.73.24,1.47.47,2.18.76,1.21.48,2.36,1.06,3.39,1.87.44.35.86.74,1.3,1.09.09.07.23.11.35.11.58.01,1.15,0,1.73,0,.8,0,1.36.5,1.63,1.25.32.87-.46,2.03-1.24,2.12-.31.04-.62.1-.94.09-.98-.04-1.74.9-1.65,1.78.06.64.47,1.3,1.24,1.45.34.06.68.1,1.03.1.29,0,.38.1.33.36-.11.6-.21,1.2-.33,1.79-.2.97-.6,1.87-1.09,2.73-.67,1.15-1.54,2.11-2.57,2.94-.87.69-1.8,1.26-2.82,1.68-.75.31-1.54.58-2.33.78-.87.22-1.77.34-2.66.49-.38.06-.76.09-1.15.11-.74.04-1.48.09-2.23.09-.72,0-1.45-.04-2.17-.12-.82-.09-1.65-.18-2.45-.36-.84-.19-1.68-.23-2.53-.23-2.26,0-4.51.02-6.77,0-.78,0-1.41-.34-1.7-1.12-.36-.96.06-1.82.94-2.2.23-.1.49-.13.74-.13.8-.02,1.61-.01,2.41,0,.74,0,1.46-.46,1.68-1.13.28-.83-.08-1.73-.86-2.06-.2-.08-.44-.13-.66-.13-1.97-.01-3.94,0-5.9-.01-1.03-.01-1.86-.82-1.79-1.88.05-.83.79-1.59,1.63-1.59,1.55,0,3.1.03,4.65,0,1.09-.03,2.05.24,3,.75,1,.54,2.05,1,3.11,1.39.87.32,1.78.54,2.68.74.78.17,1.59.28,2.39.37.75.08,1.5.09,2.25.13.04,0,.09-.02.21-.04Z"/>
  <path d="m3.41,31.79c-.41,0-.81,0-1.22,0-.97,0-1.71-.67-1.83-1.6-.08-.65.3-1.45,1.04-1.74.21-.08.45-.13.68-.13.9-.01,1.81.02,2.71-.01.83-.03,1.54.77,1.63,1.32.18,1.16-.46,1.9-1.22,2.05-.59.11-1.19.11-1.79.16,0-.02,0-.03,0-.05Z"/>
  <path d="m8.3,25.04c-.5-.05-1.01-.06-1.49-.17-.55-.12-.91-.51-1.11-1.03-.38-.97.2-1.94,1.09-2.26.13-.05.27-.05.41-.05.74,0,1.47.03,2.21-.01.69-.04,1.59.83,1.58,1.57,0,.79-.28,1.37-.99,1.71-.22.11-.48.16-.73.18-.31.03-.64,0-.95,0v.05Z"/>
  <path d="m6.75,7.93c.35,0,.7.02,1.04,0,.63-.04,1.48.82,1.51,1.48.03.81-.23,1.42-.97,1.78-.24.12-.52.19-.79.2-.52.03-1.05.04-1.58,0-1.26-.09-1.96-1.05-1.68-2.27.14-.62.82-1.24,1.56-1.2.3.02.6,0,.89,0,0,0,0,0,0,0Z"/>
  <path d="m14.17,21.53c1-.04,1.76.78,1.73,1.78-.02.93-.74,1.68-1.74,1.67-1.04,0-1.73-.75-1.75-1.72-.02-.85.64-1.77,1.76-1.73Z"/>
  <path d="m8.72,35.12c.97-.08,1.76.85,1.75,1.71-.01.97-.81,1.75-1.74,1.75-.91,0-1.72-.72-1.75-1.74-.03-.86.87-1.85,1.74-1.72Z"/>
  <path d="m13.46,2.86c0,1.07-.84,1.72-1.74,1.73-.91.01-1.73-.8-1.73-1.75,0-.91.82-1.7,1.72-1.73.93-.02,1.83.88,1.75,1.75Z"/>
</svg>